HIERARCHY
ROOT Hips
{
    OFFSET 0 0 0
    CHANNELS 6 Xposition Yposition Zposition Zrotation Xrotation Yrotation 
    JOINT LeftHip
    {
        OFFSET 3.3 0 0
        CHANNELS 3 Zrotation Xrotation Yrotation 
        JOINT LeftKnee
        {
            OFFSET 0 -17.8 0
            CHANNELS 1 Xrotation 
            End Site
            {
                OFFSET 0 -16.03 0
            }
        }
    }
    JOINT RightHip
    {
        OFFSET -3.3 0 0
        CHANNELS 3 Zrotation Xrotation Yrotation 
        JOINT RightKnee
        {
            OFFSET 0 -17.7 0
            CHANNELS 1 Xrotation 
            End Site
            {
                OFFSET 0 -16.1 0
            }
        }
    }
    JOINT Chest
    {
        OFFSET 0 4.41 0
        CHANNELS 3 Zrotation Xrotation Yrotation 
        JOINT Neck
        {
            OFFSET 0 16.76 0
            CHANNELS 2 Zrotation Xrotation 
            JOINT Head
            {
                OFFSET 0 4.4 0
                CHANNELS 3 Zrotation Xrotation Yrotation 
                End Site
                {
                    OFFSET 0 3.31 0
                }
            }
        }
        JOINT LeftCollar
        {
            OFFSET 1.01 14.58 1.68
            CHANNELS 2 Zrotation Yrotation 
            JOINT LeftShoulder
            {
                OFFSET 5.89 0 0
                CHANNELS 3 Zrotation Xrotation Yrotation 
                JOINT LeftElbow
                {
                    OFFSET 0 -11.63 0
                    CHANNELS 1 Xrotation 
                    End Site
                    {
                        OFFSET 0 -9.24 0
                    }
                }
            }
        }
        JOINT RightCollar
        {
            OFFSET -1.01 14.58 1.68
            CHANNELS 2 Zrotation Yrotation 
            JOINT RightShoulder
            {
                OFFSET -6.39 0 0
                CHANNELS 3 Zrotation Xrotation Yrotation 
                JOINT RightElbow
                {
                    OFFSET 0 -11.08 0
                    CHANNELS 1 Xrotation 
                    End Site
                    {
                        OFFSET 0 -9.13 0
                    }
                }
            }
        }
    }
}
MOTION
Frames:  17
Frame Time: 0.033333
0.180215	29.4348	1.37612	1.64998	-6.08139	-2.40407	-6.99512	1.42673	-24.5514	7.13944	-2.1989	-16.9169	-0.128263	41.1671	-2.8103	4.05911	3.85031	2.13833	35.6415	-3.84625	-37.0898	0	-16.2893	25.6617	30.0385	-16.2592	-55.4627	-17.9739	22.2157	-23.0233	-42.812	-7.63492	69.4687	-35.8448	
0.227895	29.529	2.68352	1.15883	-6.1381	-2.20701	-6.36481	4.86629	-22.1065	5.81634	-1.59252	-19.1634	-0.333963	37.7848	-2.13857	4.49313	2.10483	3.03308	36.8274	-4.43434	-36.1306	0	-15.4993	24.8381	28.1052	-21.2521	-53.4299	-19.1667	22.0946	-22.9878	-43.6796	-5.19234	73.9161	-34.4985	
0.265429	29.5925	4.14362	0.886924	-6.58334	-1.39151	-5.54513	10.2058	-11.9719	1.53908	-0.999185	-23.4222	-1.12107	30.087	-1.687	5.14214	-0.136659	4.76847	39.0585	-5.70097	-35.2203	0	-14.919	23.8076	27.1531	-25.9191	-49.0462	-22.25	21.9997	-22.8773	-44.5126	-2.62622	78.2458	-31.8301	
0.278825	29.4329	5.78629	1.09413	-6.18225	1.72913	-4.87507	14.3064	-0.395823	-0.493819	-2.30263	-27.2211	-6.07269	24.313	-1.85505	5.15733	-3.07342	6.21112	40.6727	-6.95496	-36.4436	0	-14.5457	22.6503	26.8187	-30.5028	-45.3292	-26.3253	22.5943	-23.1727	-45.9354	-0.352487	82.1557	-29.5403	
0.249493	29.0208	7.70039	1.49978	-5.36533	5.79418	-3.78848	17.8883	-0.0503172	-0.049452	-4.90101	-30.209	-16.0713	22.5948	-2.44946	4.74966	-5.41401	7.52078	41.4659	-7.75116	-38.015	0	-14.2628	21.7276	26.6205	-34.7272	-43.376	-29.7928	23.639	-23.5887	-47.7115	1.59058	87.0126	-27.7402	
0.166592	28.3874	10.0371	1.80833	-5.4893	9.05135	-2.27401	21.6331	-6.63358	3.98029	-7.31573	-32.0263	-27.1837	22.2946	-3.14854	4.8916	-6.28255	9.02564	41.6027	-7.81517	-37.6275	0	-13.7595	21.2471	26.2899	-38.0043	-42.4999	-31.3607	24.62	-23.7155	-49.1554	3.29924	95.4066	-26.1751	
0.0759937	27.3013	12.9532	2.50245	-6.4802	12.6566	-1.13978	24.4985	-14.6189	14.0757	-10.0292	-33.118	-34.6801	20.4582	-3.87488	5.6154	-6.9413	10.0968	41.044	-7.37927	-35.7332	0	-13.0312	21.2106	25.682	-39.9448	-42.3684	-32.2314	25.4306	-23.696	-50.2145	5.44113	104.237	-24.9589	
-0.00533259	25.861	15.929	3.1486	-6.92119	16.8106	-0.960996	25.3891	-22.3839	26.8359	-12.7729	-33.605	-34.8938	17.9448	-4.20936	5.83951	-8.19273	10.0235	39.8443	-6.79312	-33.5743	0	-12.663	21.3594	25.252	-40.6089	-42.5336	-34.1016	25.9758	-23.6315	-50.9864	7.37487	109.458	-24.2859	
-0.11983	26.4165	17.7955	2.41648	-7.18255	17.7858	-1.17924	22.0382	-26.4625	33.7923	-11.6063	-31.922	-32.1964	23.8178	-3.61356	5.2722	-9.15263	9.28863	38.8852	-6.17743	-31.979	0	-12.9216	21.654	25.3817	-40.1554	-42.2112	-37.0822	26.018	-23.5418	-51.5122	8.9488	107.747	-24.1216	
-0.215376	27.113	19.6139	1.46456	-7.65246	17.0177	-0.756929	18.1638	-25.1306	40.7238	-8.65748	-29.2466	-27.7931	27.0033	-2.54488	4.58864	-9.31825	8.64598	39.071	-5.57285	-31.474	0	-13.2709	22.1179	25.9208	-38.4312	-41.4528	-40.6409	25.9049	-23.5856	-51.8306	9.87988	103.604	-24.3449	
-0.283763	27.7648	21.3904	0.378087	-8.21296	14.9024	0.337305	14.4801	-20.3097	47.8173	-4.93335	-26.1578	-24.5137	28.8142	-1.25678	3.90015	-8.69579	7.94979	39.5455	-4.9916	-31.4883	0	-13.6732	22.6139	26.7434	-35.5617	-41.151	-43.5703	25.5925	-23.5118	-51.5792	9.82385	103.131	-24.6978	
-0.281907	28.2962	22.9791	-0.995465	-8.36504	11.7237	1.68009	10.1181	-14.4182	53.7159	-1.10017	-23.2007	-20.0734	29.1736	0.643254	3.25816	-7.139	6.8504	39.0543	-4.44989	-31.2113	0	-14.3308	23.0361	27.5366	-32.1006	-41.1334	-44.7161	24.7888	-23.2479	-50.6389	8.81268	98.795	-24.9079	
-0.245395	28.6998	24.4559	-2.30165	-8.13183	8.94123	2.8514	5.39316	-9.40243	58.0765	2.277	-20.1624	-14.9147	28.5277	2.55813	2.84985	-5.21751	5.96524	38.1636	-4.04444	-30.9873	0	-14.8668	23.3672	27.6786	-28.5821	-40.456	-45.0103	23.9537	-23.1862	-48.8669	7.13009	85.0928	-24.8887	
-0.249823	29.0275	25.9941	-2.98347	-7.96615	8.12633	3.47342	0.941489	-6.71337	60.7443	4.75282	-16.5609	-10.0885	27.5968	3.37777	2.83807	-3.86242	6.14633	38.023	-3.88312	-31.485	0	-14.8055	23.4926	27.2721	-24.9589	-39.3098	-45.9547	23.5547	-23.4604	-46.4676	4.02854	71.5863	-24.6653	
-0.274533	29.2475	27.6373	-3.0329	-8.00687	8.60172	3.48121	-3.44295	-5.39964	61.6987	6.33285	-12.6884	-6.73392	27.2506	3.26629	3.13368	-2.8381	6.8544	38.2719	-3.89071	-32.0496	0	-14.5533	23.5826	26.8717	-21.5654	-39.9993	-46.5484	23.5515	-23.5559	-44.388	0.302967	62.4181	-24.5131	
-0.278237	29.3184	29.314	-2.685	-7.95518	8.87104	2.99333	-8.19019	-3.65821	60.8984	7.03063	-9.33499	-4.90731	28.1542	2.72164	3.53864	-1.42355	7.00965	37.964	-3.912	-31.5499	0	-14.5154	23.6847	26.9843	-18.712	-42.1976	-44.6891	23.338	-23.1285	-42.2857	-3.60887	52.833	-24.7283	
-0.24973	29.2282	31.0129	-2.1582	-7.96906	8.17771	2.37004	-13.0495	-1.0976	58.3269	6.92499	-6.42364	-4.69015	30.5189	2.05595	4.03383	0.654049	6.55577	37.2835	-3.84748	-30.1582	0	-14.7733	23.5727	27.5877	-16.0039	-44.9984	-38.9754	22.7403	-22.5551	-40.212	-7.91874	42.5929	-24.7513	
